<svg width="70" height="72" viewBox="0 0 70 72" fill="none" xmlns="http://www.w3.org/2000/svg">
<g opacity="0.2">
<path d="M42.6361 0.808712C43.6224 1.89399 44.6087 2.97928 45.595 4.06456C45.6395 4.09702 45.6839 4.1285 45.7273 4.1685C49.8101 7.94477 53.5128 12.0422 56.8675 16.4767C57.6922 17.567 55.9681 19.114 55.0245 18.0803C52.2459 15.0388 49.4678 11.9978 46.6892 8.9563C48.1356 19.5981 49.1463 30.3037 46.8082 40.9324C44.1235 53.1348 36.8291 63.7077 25.8184 69.7907C25.314 70.0691 24.8211 69.3541 25.3195 69.0312C35.9267 62.1592 42.9011 51.5917 45.1611 39.1784C47.1436 28.29 46.0887 16.6479 43.8585 5.85696L43.8564 5.8551C44.0686 9.45203 43.1568 13.0286 41.1135 16.1575C40.2241 17.5206 37.9113 16.4123 38.8117 15.042C41.3794 11.1322 42.0627 6.62564 40.6108 2.15322C40.2535 1.05131 41.756 -0.15997 42.6361 0.808712Z" fill="black"/>
</g>
</svg>
